<mxfile host="app.diagrams.net" modified="2024-07-02T00:20:19.896Z" agent="Mozilla/5.0 (Windows NT 10.0; Win64; x64) AppleWebKit/537.36 (KHTML, like Gecko) Chrome/126.0.0.0 Safari/537.36" etag="Rk05-oZM-1pJVElymYHh" version="24.6.4" type="device">
  <diagram name="Página-1" id="xuc5VIG2btVt_Y42DJX3">
    <mxGraphModel dx="880" dy="500" grid="1" gridSize="10" guides="1" tooltips="1" connect="1" arrows="1" fold="1" page="1" pageScale="1" pageWidth="827" pageHeight="1169" math="0" shadow="0">
      <root>
        <mxCell id="0" />
        <mxCell id="1" parent="0" />
        <mxCell id="JsFfGxqbzd0SZ9JU6hgv-1" value="Procedimiento Conciliatorio                                                                  Ley 2220 de 2022  " style="whiteSpace=wrap;strokeWidth=2;fillColor=#3E29FF;" vertex="1" parent="1">
          <mxGeometry x="390" y="630" width="180" height="60" as="geometry" />
        </mxCell>
        <mxCell id="JsFfGxqbzd0SZ9JU6hgv-17" value="" style="edgeStyle=orthogonalEdgeStyle;rounded=0;orthogonalLoop=1;jettySize=auto;html=1;" edge="1" parent="1" source="JsFfGxqbzd0SZ9JU6hgv-2">
          <mxGeometry relative="1" as="geometry">
            <mxPoint x="640" y="737" as="targetPoint" />
          </mxGeometry>
        </mxCell>
        <mxCell id="JsFfGxqbzd0SZ9JU6hgv-2" value="Inicio del procedimiento" style="whiteSpace=wrap;strokeWidth=2;" vertex="1" parent="1">
          <mxGeometry x="385" y="729.5" width="190" height="34" as="geometry" />
        </mxCell>
        <mxCell id="JsFfGxqbzd0SZ9JU6hgv-52" style="edgeStyle=orthogonalEdgeStyle;rounded=0;orthogonalLoop=1;jettySize=auto;html=1;entryX=0;entryY=0.5;entryDx=0;entryDy=0;" edge="1" parent="1" source="JsFfGxqbzd0SZ9JU6hgv-3" target="JsFfGxqbzd0SZ9JU6hgv-50">
          <mxGeometry relative="1" as="geometry" />
        </mxCell>
        <mxCell id="JsFfGxqbzd0SZ9JU6hgv-3" value="Convocatoria a Audiencia" style="whiteSpace=wrap;strokeWidth=2;" vertex="1" parent="1">
          <mxGeometry x="382.5" y="830" width="197" height="34" as="geometry" />
        </mxCell>
        <mxCell id="JsFfGxqbzd0SZ9JU6hgv-22" value="" style="edgeStyle=orthogonalEdgeStyle;rounded=0;orthogonalLoop=1;jettySize=auto;html=1;" edge="1" parent="1" source="JsFfGxqbzd0SZ9JU6hgv-4" target="JsFfGxqbzd0SZ9JU6hgv-5">
          <mxGeometry relative="1" as="geometry" />
        </mxCell>
        <mxCell id="JsFfGxqbzd0SZ9JU6hgv-23" value="" style="edgeStyle=orthogonalEdgeStyle;rounded=0;orthogonalLoop=1;jettySize=auto;html=1;" edge="1" parent="1" source="JsFfGxqbzd0SZ9JU6hgv-4" target="JsFfGxqbzd0SZ9JU6hgv-5">
          <mxGeometry relative="1" as="geometry" />
        </mxCell>
        <mxCell id="JsFfGxqbzd0SZ9JU6hgv-24" value="" style="edgeStyle=orthogonalEdgeStyle;rounded=0;orthogonalLoop=1;jettySize=auto;html=1;" edge="1" parent="1" source="JsFfGxqbzd0SZ9JU6hgv-4" target="JsFfGxqbzd0SZ9JU6hgv-5">
          <mxGeometry relative="1" as="geometry" />
        </mxCell>
        <mxCell id="JsFfGxqbzd0SZ9JU6hgv-25" value="" style="edgeStyle=orthogonalEdgeStyle;rounded=0;orthogonalLoop=1;jettySize=auto;html=1;" edge="1" parent="1" source="JsFfGxqbzd0SZ9JU6hgv-4" target="JsFfGxqbzd0SZ9JU6hgv-5">
          <mxGeometry relative="1" as="geometry" />
        </mxCell>
        <mxCell id="JsFfGxqbzd0SZ9JU6hgv-28" value="" style="edgeStyle=orthogonalEdgeStyle;rounded=0;orthogonalLoop=1;jettySize=auto;html=1;" edge="1" parent="1" source="JsFfGxqbzd0SZ9JU6hgv-4" target="JsFfGxqbzd0SZ9JU6hgv-5">
          <mxGeometry relative="1" as="geometry" />
        </mxCell>
        <mxCell id="JsFfGxqbzd0SZ9JU6hgv-29" value="" style="edgeStyle=orthogonalEdgeStyle;rounded=0;orthogonalLoop=1;jettySize=auto;html=1;" edge="1" parent="1" source="JsFfGxqbzd0SZ9JU6hgv-4" target="JsFfGxqbzd0SZ9JU6hgv-5">
          <mxGeometry relative="1" as="geometry" />
        </mxCell>
        <mxCell id="JsFfGxqbzd0SZ9JU6hgv-4" value="Desarrollo de la Audiencia de conciliación" style="whiteSpace=wrap;strokeWidth=2;fillColor=#e1d5e7;strokeColor=#9673a6;" vertex="1" parent="1">
          <mxGeometry x="377.5" y="923" width="202" height="34" as="geometry" />
        </mxCell>
        <mxCell id="JsFfGxqbzd0SZ9JU6hgv-5" value="Propuesta de Acuerdo" style="whiteSpace=wrap;strokeWidth=2;" vertex="1" parent="1">
          <mxGeometry x="393" y="1050" width="171" height="34" as="geometry" />
        </mxCell>
        <mxCell id="JsFfGxqbzd0SZ9JU6hgv-58" style="edgeStyle=orthogonalEdgeStyle;rounded=0;orthogonalLoop=1;jettySize=auto;html=1;exitX=0;exitY=0.5;exitDx=0;exitDy=0;entryX=1;entryY=0.5;entryDx=0;entryDy=0;" edge="1" parent="1" source="JsFfGxqbzd0SZ9JU6hgv-6" target="JsFfGxqbzd0SZ9JU6hgv-57">
          <mxGeometry relative="1" as="geometry" />
        </mxCell>
        <mxCell id="JsFfGxqbzd0SZ9JU6hgv-6" value="Acuerdo Conciliatorio" style="whiteSpace=wrap;strokeWidth=2;" vertex="1" parent="1">
          <mxGeometry x="399.5" y="1140" width="171" height="34" as="geometry" />
        </mxCell>
        <mxCell id="JsFfGxqbzd0SZ9JU6hgv-62" style="edgeStyle=orthogonalEdgeStyle;rounded=0;orthogonalLoop=1;jettySize=auto;html=1;exitX=0;exitY=0.5;exitDx=0;exitDy=0;entryX=1;entryY=0.5;entryDx=0;entryDy=0;" edge="1" parent="1" source="JsFfGxqbzd0SZ9JU6hgv-7" target="JsFfGxqbzd0SZ9JU6hgv-60">
          <mxGeometry relative="1" as="geometry" />
        </mxCell>
        <mxCell id="JsFfGxqbzd0SZ9JU6hgv-7" value="Protocolización de la conciliación" style="whiteSpace=wrap;strokeWidth=2;" vertex="1" parent="1">
          <mxGeometry x="377.5" y="1290" width="215" height="34" as="geometry" />
        </mxCell>
        <mxCell id="JsFfGxqbzd0SZ9JU6hgv-8" value="Finalización del Procedimiento" style="whiteSpace=wrap;strokeWidth=2;fillColor=#3224FF;" vertex="1" parent="1">
          <mxGeometry x="381.5" y="1410" width="211" height="50" as="geometry" />
        </mxCell>
        <mxCell id="JsFfGxqbzd0SZ9JU6hgv-9" value="" style="curved=1;startArrow=none;endArrow=block;exitX=0.5;exitY=1;entryX=0.5;entryY=0;rounded=0;" edge="1" parent="1" source="JsFfGxqbzd0SZ9JU6hgv-1" target="JsFfGxqbzd0SZ9JU6hgv-2">
          <mxGeometry relative="1" as="geometry">
            <Array as="points" />
          </mxGeometry>
        </mxCell>
        <mxCell id="JsFfGxqbzd0SZ9JU6hgv-10" value="" style="curved=1;startArrow=none;endArrow=block;exitX=0.5;exitY=1;entryX=0.5;entryY=0;rounded=0;" edge="1" parent="1" source="JsFfGxqbzd0SZ9JU6hgv-2" target="JsFfGxqbzd0SZ9JU6hgv-3">
          <mxGeometry relative="1" as="geometry">
            <Array as="points" />
          </mxGeometry>
        </mxCell>
        <mxCell id="JsFfGxqbzd0SZ9JU6hgv-11" value="" style="curved=1;startArrow=none;endArrow=block;exitX=0.5;exitY=1;entryX=0.5;entryY=0;rounded=0;" edge="1" parent="1" source="JsFfGxqbzd0SZ9JU6hgv-3" target="JsFfGxqbzd0SZ9JU6hgv-4">
          <mxGeometry relative="1" as="geometry">
            <Array as="points" />
          </mxGeometry>
        </mxCell>
        <mxCell id="JsFfGxqbzd0SZ9JU6hgv-14" value="" style="curved=1;startArrow=none;endArrow=block;exitX=0.5;exitY=1;entryX=0.5;entryY=0;rounded=0;" edge="1" parent="1" source="JsFfGxqbzd0SZ9JU6hgv-6" target="JsFfGxqbzd0SZ9JU6hgv-7">
          <mxGeometry relative="1" as="geometry">
            <Array as="points" />
          </mxGeometry>
        </mxCell>
        <mxCell id="JsFfGxqbzd0SZ9JU6hgv-15" value="" style="curved=1;startArrow=none;endArrow=block;exitX=0.5;exitY=1;entryX=0.5;entryY=0;rounded=0;" edge="1" parent="1" source="JsFfGxqbzd0SZ9JU6hgv-7" target="JsFfGxqbzd0SZ9JU6hgv-8">
          <mxGeometry relative="1" as="geometry">
            <Array as="points" />
          </mxGeometry>
        </mxCell>
        <mxCell id="JsFfGxqbzd0SZ9JU6hgv-38" value="&lt;h1 style=&quot;margin-top: 0px;&quot;&gt;&lt;font style=&quot;font-size: 12px;&quot;&gt;&lt;span style=&quot;background-color: initial; text-align: justify; text-indent: -18pt;&quot;&gt;S&lt;/span&gt;&lt;i style=&quot;background-color: initial; text-align: justify; text-indent: -18pt;&quot;&gt;olicitud&lt;/i&gt;&lt;span style=&quot;background-color: initial; text-align: justify; text-indent: -18pt;&quot;&gt; del interesado que p&lt;/span&gt;&lt;span style=&quot;background-color: initial; font-weight: normal; text-align: justify; text-indent: -18pt;&quot;&gt;uede ser:&amp;nbsp;&lt;/span&gt;&lt;/font&gt;&lt;span style=&quot;background-color: initial; font-size: 12px; text-align: justify; text-indent: -18pt; font-variant-numeric: normal; font-variant-east-asian: normal; font-variant-alternates: normal; font-kerning: auto; font-optical-sizing: auto; font-feature-settings: normal; font-variation-settings: normal; font-variant-position: normal; font-stretch: normal; line-height: normal; font-family: &amp;quot;Times New Roman&amp;quot;;&quot;&gt;&amp;nbsp; &amp;nbsp; &amp;nbsp; &amp;nbsp; &lt;/span&gt;*&lt;i style=&quot;background-color: initial; font-size: 12px; text-align: justify; text-indent: -18pt; font-weight: normal;&quot;&gt;Verbal o escrita&lt;/i&gt;&lt;span style=&quot;background-color: initial; font-size: 12px; font-weight: normal;&quot;&gt;&amp;nbsp;&lt;/span&gt;*&lt;i style=&quot;background-color: initial; font-size: 12px; text-align: justify; text-indent: -18pt; font-weight: normal;&quot;&gt;Individual o conjunta&lt;/i&gt;&lt;/h1&gt;&lt;h1 style=&quot;margin-top: 0px;&quot;&gt;*&lt;i style=&quot;font-size: 12px; text-indent: -18pt; background-color: initial; font-weight: normal;&quot;&gt;Física o electrónica&lt;/i&gt;&lt;/h1&gt;&lt;p&gt;&lt;br&gt;&lt;/p&gt;" style="text;html=1;whiteSpace=wrap;overflow=hidden;rounded=0;fillColor=#dae8fc;strokeColor=#6c8ebf;" vertex="1" parent="1">
          <mxGeometry x="640" y="670" width="250" height="120" as="geometry" />
        </mxCell>
        <mxCell id="JsFfGxqbzd0SZ9JU6hgv-46" style="edgeStyle=orthogonalEdgeStyle;rounded=0;orthogonalLoop=1;jettySize=auto;html=1;entryX=0;entryY=0.5;entryDx=0;entryDy=0;" edge="1" parent="1" source="JsFfGxqbzd0SZ9JU6hgv-4" target="JsFfGxqbzd0SZ9JU6hgv-55">
          <mxGeometry relative="1" as="geometry">
            <mxPoint x="642.104" y="1055.02" as="targetPoint" />
          </mxGeometry>
        </mxCell>
        <mxCell id="JsFfGxqbzd0SZ9JU6hgv-49" value="&lt;i style=&quot;background-color: initial;&quot;&gt;&lt;b&gt;Para proponer las formulas de arreglo&lt;/b&gt;. &lt;/i&gt;&lt;span style=&quot;background-color: initial;&quot;&gt;Las partes deben ser claras con los hechos y&amp;nbsp;&lt;/span&gt;&lt;span style=&quot;background-color: initial;&quot;&gt;las pretensiones para acordar, si estas no plantean&amp;nbsp; fórmulas de arreglo el conciliador podrá proponer&amp;nbsp;&lt;/span&gt;&lt;span style=&quot;background-color: initial;&quot;&gt;las que considere procedentes.&lt;/span&gt;" style="rounded=0;whiteSpace=wrap;html=1;align=left;fillColor=#dae8fc;strokeColor=#6c8ebf;" vertex="1" parent="1">
          <mxGeometry x="130" y="1007" width="220" height="120" as="geometry" />
        </mxCell>
        <mxCell id="JsFfGxqbzd0SZ9JU6hgv-50" value="&lt;div&gt;&lt;b&gt;El conciliador citara a las partes &lt;/b&gt;para audiencia de conciliación, &lt;i&gt;indicando el asunto, &lt;/i&gt;cuando este sea conciliable.&lt;/div&gt;" style="rounded=0;whiteSpace=wrap;html=1;align=left;fillColor=#dae8fc;strokeColor=#6c8ebf;" vertex="1" parent="1">
          <mxGeometry x="650" y="823" width="210" height="100" as="geometry" />
        </mxCell>
        <mxCell id="JsFfGxqbzd0SZ9JU6hgv-55" value="&lt;p style=&quot;text-align: justify;&quot; class=&quot;MsoListParagraphCxSpMiddle&quot;&gt;La conciliación extrajudicial en derecho tendrá que darse dentro de los 3 meses siguientes&amp;nbsp; a la presentación de la solicitud, por mutuo acuerdo pueden prorrogar el termino hasta 3 meses mas.&lt;/p&gt;&lt;p style=&quot;text-align: justify;&quot; class=&quot;MsoListParagraphCxSpMiddle&quot;&gt;La asistencia de las partes y/o sus apoderados&amp;nbsp;&lt;i&gt;se llevará bajo orientación del conciliador.&lt;/i&gt;&lt;/p&gt;&lt;p style=&quot;text-align: justify;&quot; class=&quot;MsoListParagraphCxSpFirst&quot;&gt;&lt;i&gt;La presentación de la solicitud extrajudicial en derecho suspende&amp;nbsp;&lt;b&gt;la prescripción y la caducidad&amp;nbsp;&lt;/b&gt;hasta que se&amp;nbsp;suscriba acta de conciliación&lt;/i&gt;&lt;b&gt;&amp;nbsp;&lt;/b&gt;o se emita constancia,.&lt;/p&gt;" style="rounded=0;whiteSpace=wrap;html=1;fillColor=#dae8fc;strokeColor=#6c8ebf;" vertex="1" parent="1">
          <mxGeometry x="660" y="965" width="258.5" height="220" as="geometry" />
        </mxCell>
        <mxCell id="JsFfGxqbzd0SZ9JU6hgv-56" style="edgeStyle=orthogonalEdgeStyle;rounded=0;orthogonalLoop=1;jettySize=auto;html=1;exitX=0;exitY=0.5;exitDx=0;exitDy=0;entryX=1;entryY=0.4;entryDx=0;entryDy=0;entryPerimeter=0;" edge="1" parent="1" source="JsFfGxqbzd0SZ9JU6hgv-5" target="JsFfGxqbzd0SZ9JU6hgv-49">
          <mxGeometry relative="1" as="geometry" />
        </mxCell>
        <mxCell id="JsFfGxqbzd0SZ9JU6hgv-57" value="Si se llega acordar entre las partes el conciliador con posterioridad &lt;b&gt;expedirá acta conciliatoria&lt;/b&gt; que tendrá los efectos jurídicos de cosa juzgada y prestara merito ejecutivo." style="rounded=0;whiteSpace=wrap;html=1;align=left;fillColor=#dae8fc;strokeColor=#6c8ebf;" vertex="1" parent="1">
          <mxGeometry x="144" y="1150" width="186" height="120" as="geometry" />
        </mxCell>
        <mxCell id="JsFfGxqbzd0SZ9JU6hgv-59" style="edgeStyle=orthogonalEdgeStyle;rounded=0;orthogonalLoop=1;jettySize=auto;html=1;exitX=0.5;exitY=1;exitDx=0;exitDy=0;entryX=0.465;entryY=0.294;entryDx=0;entryDy=0;entryPerimeter=0;" edge="1" parent="1" source="JsFfGxqbzd0SZ9JU6hgv-5" target="JsFfGxqbzd0SZ9JU6hgv-6">
          <mxGeometry relative="1" as="geometry" />
        </mxCell>
        <mxCell id="JsFfGxqbzd0SZ9JU6hgv-60" value="&lt;font style=&quot;font-size: 12px;&quot;&gt;En caso de llegar acuerdo total o parcial se expedirá&lt;b&gt; acta conciliatoria&lt;/b&gt; de lo acordado por las partes.&lt;/font&gt;&lt;div&gt;&lt;font style=&quot;font-size: 12px;&quot;&gt;&lt;br&gt;&lt;/font&gt;&lt;/div&gt;&lt;div&gt;&lt;font style=&quot;font-size: 12px;&quot;&gt;Se expide &lt;b&gt;constancia &lt;/b&gt;cuando el asunto no es conciliable, o cuando&amp;nbsp;&lt;span style=&quot;font-family: Calibri, sans-serif; background-color: initial;&quot;&gt;en&lt;br&gt;el tramite de la audiencia se note&lt;b&gt; &lt;/b&gt;&lt;/span&gt;&lt;b style=&quot;font-family: Calibri, sans-serif; background-color: initial;&quot;&gt;que&lt;br&gt;no es procedente, o en caso de no llegar a acuerdo conciliatorio.&lt;/b&gt;&lt;span style=&quot;background-color: initial;&quot;&gt;&amp;nbsp;&lt;/span&gt;&lt;/font&gt;&lt;/div&gt;" style="rounded=0;whiteSpace=wrap;html=1;align=left;fillColor=#dae8fc;strokeColor=#6c8ebf;" vertex="1" parent="1">
          <mxGeometry x="130" y="1290" width="206" height="150" as="geometry" />
        </mxCell>
      </root>
    </mxGraphModel>
  </diagram>
</mxfile>
